<svg width="112" height="23" viewBox="0 0 112 23" fill="none" xmlns="http://www.w3.org/2000/svg">
<path d="M5.44627 1.37395C5.44627 1.94098 5.4293 2.60615 5.39537 3.36945C5.36144 4.11095 5.3275 4.67798 5.29357 5.07054C5.19177 6.18278 5.14087 7.29503 5.14087 8.40728C5.14087 9.23601 5.19177 10.0975 5.29357 10.9916C6.3455 10.0102 7.48226 9.29053 8.70385 8.83255C9.92544 8.37456 11.4015 8.14557 13.1321 8.14557C14.3877 8.14557 15.5583 8.50541 16.6442 9.2251C17.7301 9.94479 18.4257 10.7844 18.7311 11.744C18.8329 12.5946 18.8838 13.6305 18.8838 14.8518C18.8838 15.6369 18.9517 16.6619 19.0874 17.9268C19.1553 18.4066 19.3419 18.8537 19.6473 19.268C19.9866 19.6824 20.4617 19.8896 21.0725 19.8896C21.3779 19.8896 21.6154 19.8787 21.7851 19.8569C21.9887 19.8351 22.1753 19.8242 22.345 19.8242C22.82 19.8242 23.1424 19.9005 23.3121 20.0531C23.5157 20.2058 23.6175 20.4239 23.6175 20.7074C23.6175 21.2308 23.2103 21.6234 22.3959 21.8851C21.5815 22.1468 20.8349 22.2776 20.1563 22.2776C17.7131 22.2776 16.0334 21.6234 15.1172 20.3149C14.6082 19.5734 14.2859 18.6138 14.1501 17.4361C14.0144 16.2366 13.9465 14.8409 13.9465 13.2488C13.9465 11.6786 13.1152 10.8935 11.4524 10.8935C10.5362 10.8935 9.60308 11.2097 8.65295 11.8422C7.73676 12.4528 6.97326 13.2706 6.36246 14.2956C5.75167 15.2988 5.44627 16.3457 5.44627 17.4361L5.49717 20.8383C5.49717 21.3181 5.20874 21.6779 4.63187 21.9178C4.05501 22.1359 3.51208 22.2449 3.00308 22.2449C2.25655 22.2449 1.57789 22.1032 0.967094 21.8197C0.356298 21.5143 0.0508997 21.1763 0.0508997 20.8055C0.288432 19.1699 0.407198 16.4329 0.407198 12.5946C0.407198 11.8967 0.322365 9.31234 0.152699 4.84154L0 1.83194C0 1.35214 0.339331 0.937778 1.01799 0.588838C1.69666 0.218088 2.46015 0.0327149 3.30848 0.0327149C4.05501 0.0327149 4.59794 0.141758 4.93727 0.359846C5.2766 0.577934 5.44627 0.915969 5.44627 1.37395ZM29.9787 1.11225C31.1663 1.17767 32.2013 1.38486 33.0835 1.7338C33.9658 2.06093 34.4069 2.56253 34.4069 3.2386C34.4069 3.7402 34.0337 4.14366 33.2871 4.44899C32.5745 4.7325 31.7092 4.87426 30.6913 4.87426C29.7072 4.87426 29.0285 4.71069 28.6553 4.38356C28.282 4.05643 28.0954 3.71839 28.0954 3.36945C28.0954 2.71519 28.1972 2.16997 28.4008 1.7338C28.6383 1.29762 29.1643 1.09044 29.9787 1.11225ZM34.0506 15.6042V16.5528C34.0506 17.4034 34.0846 18.2103 34.1524 18.9736C34.2542 19.7151 34.373 20.4675 34.5087 21.2308C34.4748 21.4489 34.2203 21.6779 33.7452 21.9178C33.2702 22.1359 32.846 22.2449 32.4727 22.2449C31.828 22.2449 31.1663 22.1686 30.4877 22.0159C29.8429 21.8415 29.4527 21.6343 29.317 21.3944C29.1134 20.6965 29.0116 20.075 29.0116 19.5297C29.0116 17.7414 28.9267 15.735 28.7571 13.5105C28.6213 11.5477 28.5535 10.1738 28.5535 9.38867C28.5535 8.99611 28.8589 8.65808 29.4697 8.37456C30.0805 8.09105 30.7252 7.94929 31.4038 7.94929C32.3879 7.94929 33.0666 8.09105 33.4398 8.37456C33.847 8.65808 34.0506 9.10515 34.0506 9.7158V15.6042ZM51.5982 2.84604C50.5802 2.84604 49.9524 3.39126 49.7149 4.4817C49.4773 5.96469 49.3586 7.08785 49.3586 7.85115C50.0372 7.89477 50.7498 7.91658 51.4964 7.91658C51.9714 7.91658 52.5822 7.89477 53.3288 7.85115L54.6522 7.81844C55.3308 7.81844 55.8398 7.89477 56.1791 8.04743C56.5185 8.20009 56.6881 8.45089 56.6881 8.79983C56.6881 9.27962 56.4336 9.69399 55.9246 10.0429C55.4496 10.3701 54.8897 10.5336 54.245 10.5336C51.8018 10.5336 50.156 10.61 49.3077 10.7626C49.3077 12.093 49.4095 13.9794 49.6131 16.422L49.7149 18.0249L49.9185 20.5766C49.9863 21.209 49.8845 21.6561 49.6131 21.9178C49.3755 22.1577 48.8496 22.2776 48.0352 22.2776C46.5421 22.2776 45.575 21.6997 45.1339 20.5438C44.8624 19.6933 44.6419 18.5047 44.4722 16.9781C44.3025 15.4515 44.2177 14.0885 44.2177 12.889C44.2177 12.2565 44.2686 11.5368 44.3704 10.7299C44.3025 10.7081 44.1159 10.6972 43.8105 10.6972C43.5051 10.6972 43.2845 10.7081 43.1488 10.7299C42.1308 10.7735 41.3843 10.7953 40.9092 10.7953C40.6038 10.7953 40.2984 10.6645 39.993 10.4028C39.6876 10.1193 39.5349 9.78123 39.5349 9.38867C39.5349 9.17058 39.6537 8.9743 39.8912 8.79983C40.1288 8.60355 40.4172 8.4618 40.7565 8.37456C41.2655 8.20009 41.9951 8.11286 42.9452 8.11286L44.4722 8.14557C44.4722 5.04873 45.0151 2.90057 46.101 1.70108C47.119 0.567029 48.7987 0 51.1401 0C52.4974 0 53.736 0.218087 54.8557 0.654264C55.3308 0.850543 55.6871 1.09044 55.9246 1.37395C56.1961 1.65747 56.3318 1.93008 56.3318 2.19178C56.3318 2.51891 56.1282 2.85695 55.721 3.20589C55.3478 3.55483 54.7709 3.7293 53.9905 3.7293C53.6851 3.7293 53.2948 3.57664 52.8198 3.27131C52.6501 3.16227 52.4635 3.06413 52.2599 2.9769C52.0563 2.88966 51.8357 2.84604 51.5982 2.84604ZM66.7073 17.0435C66.7073 17.8723 66.894 18.5156 67.2672 18.9736C67.6744 19.4098 68.1834 19.6279 68.7942 19.6279C69.1335 19.6279 69.4559 19.617 69.7613 19.5952C70.0667 19.5515 70.3721 19.5297 70.6775 19.5297C71.0168 19.5297 71.3053 19.6388 71.5428 19.8569C71.8143 20.075 71.95 20.3149 71.95 20.5766C71.95 21.1 71.5598 21.5143 70.7793 21.8197C70.0328 22.1032 69.0148 22.2449 67.7253 22.2449C66.8091 22.2449 65.876 22.0705 64.9258 21.7215C64.0096 21.3508 63.2461 20.7837 62.6353 20.0204C62.0245 19.2353 61.7192 18.2648 61.7192 17.109C61.7192 14.6228 61.787 12.5182 61.9228 10.7953C62.0924 8.74531 62.1772 6.16097 62.1772 3.04232C62.1772 2.06093 62.2621 1.37395 62.4317 0.981395C62.6353 0.676073 62.9577 0.447081 63.3988 0.294418C63.8739 0.119949 64.3659 0.0327149 64.8749 0.0327149C65.3839 0.0327149 65.8251 0.0872368 66.1983 0.19628C66.6055 0.305323 66.877 0.479794 67.0127 0.719691C67.1485 0.981395 67.2333 1.2431 67.2672 1.50481C67.3351 1.7447 67.369 2.09364 67.369 2.55163C67.369 3.44578 67.3181 4.30723 67.2163 5.13596C67.1485 6.13916 67.1145 6.86976 67.1145 7.32774C66.8431 11.1661 66.7073 14.4047 66.7073 17.0435ZM78.7245 1.11225C79.9121 1.17767 80.9471 1.38486 81.8293 1.7338C82.7116 2.06093 83.1527 2.56253 83.1527 3.2386C83.1527 3.7402 82.7795 4.14366 82.0329 4.44899C81.3204 4.7325 80.455 4.87426 79.4371 4.87426C78.453 4.87426 77.7743 4.71069 77.4011 4.38356C77.0278 4.05643 76.8412 3.71839 76.8412 3.36945C76.8412 2.71519 76.943 2.16997 77.1466 1.7338C77.3841 1.29762 77.9101 1.09044 78.7245 1.11225ZM82.7964 15.6042V16.5528C82.7964 17.4034 82.8304 18.2103 82.8982 18.9736C83 19.7151 83.1188 20.4675 83.2545 21.2308C83.2545 21.4925 83.017 21.7324 82.5419 21.9505C82.0669 22.1468 81.6257 22.2449 81.2186 22.2449C80.5738 22.2449 79.9121 22.1686 79.2335 22.0159C78.5887 21.8415 78.1985 21.6343 78.0628 21.3944C77.8592 20.6965 77.7574 20.075 77.7574 19.5297C77.7574 17.7414 77.6725 15.735 77.5029 13.5105C77.3671 11.5477 77.2993 10.1738 77.2993 9.38867C77.2993 8.99611 77.6047 8.65808 78.2155 8.37456C78.8263 8.09105 79.471 7.94929 80.1497 7.94929C81.1337 7.94929 81.8124 8.09105 82.1856 8.37456C82.5928 8.65808 82.7964 9.10515 82.7964 9.7158V15.6042ZM107.063 7.68759C107.741 7.68759 108.267 7.79663 108.641 8.01472C109.048 8.211 109.251 8.4618 109.251 8.76712C109.251 8.98521 109.184 9.2142 109.048 9.45409C108.946 9.67218 108.827 9.90117 108.692 10.1411C107.911 11.3187 106.265 12.9653 103.754 15.0808C106.333 17.218 108.42 18.592 110.015 19.2026C110.151 19.2462 110.405 19.3226 110.778 19.4316C111.152 19.5406 111.44 19.6715 111.644 19.8242C111.881 19.9768 112 20.1513 112 20.3476C112 20.8274 111.712 21.2199 111.135 21.5252C110.592 21.8088 109.93 21.9505 109.15 21.9505C107.826 21.9505 106.384 21.4816 104.823 20.5438C103.262 19.5843 101.939 18.5811 100.853 17.5342C100.073 18.2975 99.1733 19.0608 98.1553 19.8242C97.1712 20.5657 96.255 21.1981 95.4067 21.7215C95.0674 21.9614 94.6602 22.1468 94.1851 22.2776C93.744 22.4085 93.3028 22.4739 92.8617 22.4739C92.2509 22.4739 91.708 22.3867 91.2329 22.2122C90.7579 22.0377 90.5203 21.7324 90.5203 21.2962C90.5203 21.1872 90.6391 21.0127 90.8766 20.7728C91.1142 20.5111 91.2499 20.3585 91.2838 20.3149C91.691 19.8569 92.2339 19.388 92.9126 18.9082C93.5913 18.4066 94.0154 18.0904 94.1851 17.9595C94.5923 17.6324 95.0334 17.3162 95.5085 17.0108C95.78 16.8145 96.1872 16.5092 96.7301 16.0949C97.273 15.6805 97.6463 15.3534 97.8499 15.1135L96.0684 13.5432C95.2201 12.9108 94.4905 12.4092 93.8797 12.0384C93.2689 11.6459 92.7769 11.4496 92.4036 11.4496C91.8607 11.4496 91.3517 11.5477 90.8766 11.744C90.4694 11.9185 90.0622 12.0057 89.655 12.0057C89.2139 12.0057 88.8746 11.9403 88.637 11.8094C88.3995 11.6568 88.2807 11.4932 88.2807 11.3187C88.2807 10.5772 88.7388 9.94479 89.655 9.42138C90.5712 8.87616 91.7249 8.60355 93.1162 8.60355C94.4396 8.60355 95.6103 8.89797 96.6283 9.48681C97.6802 10.0538 98.7152 10.8171 99.7332 11.7767C99.8689 11.864 100.022 12.0057 100.191 12.202C100.361 12.3983 100.531 12.5618 100.7 12.6927C101.074 12.3438 101.752 11.6677 102.736 10.6645C103.788 9.465 104.416 8.77802 104.62 8.60355C105.332 7.99291 106.147 7.68759 107.063 7.68759Z" fill="#D00707"/>
</svg>
